PathFileType	4	(X/Y/Z)	C:\Users\Basilio\Documents\Thesis Gigler\squatting_fais\c3dfiles\058\SLS_front_pre5\markers_experimental.trc
DataRate	CameraRate	NumFrames	NumMarkers	Units	OrigDataRate	OrigDataStartFrame	OrigNumFrames
200.000000	200.000000	4	61	mm	200.000000	1081	1236
Frame#	Time	FHD			LBHD			RBHD			C7			T10			CLAV			LSHO			LUUPA			LMUPA			LDUPA			LLEP			LMEP			LRAD			LUL			LRFIN			RSHO			RUPA1			RMUPA			RDUPA			RLEP			RMEP			RRAD			RUL			RUFIN			LASI			RASI			USACR			LSACR			RSACR			LTHI1			LTHI2			LTHI3			LTHI4			LLFC			LMFC			LTIB1			LTIB2			LTIB3			LTIB4			LLMAL			LMMAL			LHEE			LMT1			LMT2			LMT5			RTHI			RTHI2			RTHI3			RTHI4			RLFC			RMFC			RTIB1			RTIB2			RTIB3			RTIB4			RLMAL			RMMAL			RHEE			RMT1			RMT2			RMT5			
		X1	Y1	Z1	X2	Y2	Z2	X3	Y3	Z3	X4	Y4	Z4	X5	Y5	Z5	X6	Y6	Z6	X7	Y7	Z7	X8	Y8	Z8	X9	Y9	Z9	X10	Y10	Z10	X11	Y11	Z11	X12	Y12	Z12	X13	Y13	Z13	X14	Y14	Z14	X15	Y15	Z15	X16	Y16	Z16	X17	Y17	Z17	X18	Y18	Z18	X19	Y19	Z19	X20	Y20	Z20	X21	Y21	Z21	X22	Y22	Z22	X23	Y23	Z23	X24	Y24	Z24	X25	Y25	Z25	X26	Y26	Z26	X27	Y27	Z27	X28	Y28	Z28	X29	Y29	Z29	X30	Y30	Z30	X31	Y31	Z31	X32	Y32	Z32	X33	Y33	Z33	X34	Y34	Z34	X35	Y35	Z35	X36	Y36	Z36	X37	Y37	Z37	X38	Y38	Z38	X39	Y39	Z39	X40	Y40	Z40	X41	Y41	Z41	X42	Y42	Z42	X43	Y43	Z43	X44	Y44	Z44	X45	Y45	Z45	X46	Y46	Z46	X47	Y47	Z47	X48	Y48	Z48	X49	Y49	Z49	X50	Y50	Z50	X51	Y51	Z51	X52	Y52	Z52	X53	Y53	Z53	X54	Y54	Z54	X55	Y55	Z55	X56	Y56	Z56	X57	Y57	Z57	X58	Y58	Z58	X59	Y59	Z59	X60	Y60	Z60	X61	Y61	Z61	

1082	5.405	-301.5810546875001	1813.418823242188	-584.4201660156251	-456.8270568847657	1759.229614257813	-658.1062622070314	-291.7522277832032	1826.8212890625	-726.0211181640626	-465.391815185547	1602.118041992188	-681.7819213867189	-462.3077697753907	1292.667724609375	-691.2301025390626	-303.3735046386719	1558.422241210938	-673.5447998046876	-316.3152160644532	1609.966064453125	-847.4595336914065	-402.8756408691407	1409.798950195313	-976.310729980469	-359.5688171386719	1389.984985351563	-984.110046386719	-394.7956542968751	1342.816772460938	-991.8078613281252	-392.9992675781251	1276.192260742188	-1005.319885253906	-416.5640563964845	1250.460083007813	-944.1021118164065	-320.7256469726563	1007.435180664063	-1008.749145507813	-345.2419128417969	1021.353210449219	-1084.978271484375	-288.8008422851563	915.8792114257815	-1043.330322265625	-330.0274353027344	1581.685546875	-487.9166259765626	-404.0051879882814	1349.10595703125	-408.922088623047	-360.0054626464844	1330.595947265625	-422.4946594238282	-392.7604980468751	1281.135375976563	-417.9562377929689	-407.2825317382814	1221.815673828125	-429.5278320312501	-437.2013244628907	1212.104248046875	-506.0439453125001	-390.7020263671876	945.7285766601565	-471.5975952148439	-410.8291015625001	959.5664062500002	-394.5286865234376	-383.6690979003907	855.0944824218752	-442.2480468750001	-296.6871032714844	1122.266845703125	-860.7983398437502	-264.9644165039063	1082.321655273438	-625.7143554687501	-472.1633605957032	1172.366088867188	-696.0099487304689	-483.4768371582032	1145.046752929688	-726.6604003906251	-469.981658935547	1136.623291015625	-671.3185424804689	-278.4898681640626	859.2056884765627	-958.5201416015627	-229.5872344970704	789.554870605469	-956.341003417969	-187.583740234375	798.342956542969	-927.9627075195315	-243.758285522461	731.8135986328126	-952.1019287109377	-214.1783142089844	634.9933471679689	-948.3531494140627	-192.5139160156251	620.9395751953126	-821.929626464844	-120.4109344482422	520.7280883789064	-921.7198486328127	-158.7873992919922	474.5349426269532	-981.5806274414065	-118.7200164794922	476.2634582519532	-958.9910888671877	-92.84815216064455	397.564178466797	-941.3311157226565	-91.70588684082033	192.7185516357422	-971.063415527344	-66.5714569091797	207.2578277587891	-881.6648559570315	-140.1023101806641	141.5575256347657	-917.001892089844	79.4448699951172	181.9936828613282	-913.649353027344	81.27100372314455	189.057861328125	-960.1502075195315	35.30429458618165	157.6443328857422	-1011.00341796875	-369.4974670410157	869.375183105469	-570.3576660156251	-333.9119262695313	812.8116455078127	-572.9727783203126	-300.3623962402344	813.584167480469	-575.1265258789064	-362.2088928222657	736.7662353515626	-594.2015991210939	-357.0045471191407	556.7604370117189	-624.2467041015626	-324.7818908691407	552.4275512695314	-757.5699462890626	-307.9244079589844	357.7421875000001	-721.4125366210939	-347.0872802734376	275.4158020019532	-661.9171142578126	-311.0434875488282	270.3925781250001	-693.4475097656251	-321.8834838867188	228.8119049072266	-731.5863037109376	-381.4295654296876	117.7814102172852	-696.7791748046876	-350.0626831054688	143.9549102783203	-783.104675292969	-445.3148193359376	103.8364562988282	-762.4340209960939	-238.0163116455079	59.50205612182619	-769.7609863281252	-231.102035522461	62.17014694213869	-716.7211303710939	-282.1405944824219	30.53602600097657	-666.7497558593751	
1083	5.41	-301.1212463378907	1813.367309570313	-584.7316894531251	-456.312713623047	1759.47998046875	-658.5998535156251	-290.9162292480469	1826.703979492188	-726.4828491210939	-464.7678222656251	1602.14794921875	-682.0983276367189	-461.2294921875001	1293.11083984375	-691.4368286132814	-303.0137939453126	1558.375366210938	-673.8435058593751	-315.4950256347657	1609.853637695313	-848.0578613281252	-404.217498779297	1410.292846679688	-976.151062011719	-361.4691162109376	1389.729736328125	-983.9687500000002	-396.8684997558595	1342.770141601563	-991.052673339844	-396.1782226562501	1276.232543945313	-1004.338806152344	-418.8221130371095	1250.957397460938	-942.910095214844	-327.4107055664063	1006.6005859375	-1008.655578613281	-353.0981750488282	1020.672485351563	-1084.380859375	-297.3913574218751	914.6257324218752	-1043.648315429688	-329.5827331542969	1581.87744140625	-487.8787841796876	-406.4307556152345	1350.039672851563	-409.405731201172	-362.5423583984376	1330.89453125	-423.2089233398439	-396.0082397460939	1281.508544921875	-418.8360900878907	-410.957000732422	1222.299438476563	-430.8637084960939	-440.6928100585939	1213.528930664063	-507.6141357421876	-397.4686279296876	946.288024902344	-473.7650451660157	-418.0206604003907	960.3311767578127	-396.7916870117189	-392.1210021972657	855.6680297851565	-445.236053466797	-296.2437744140626	1122.179931640625	-860.659606933594	-264.5090026855469	1082.268188476563	-625.6312255859376	-471.6997375488282	1172.38330078125	-695.9648437500001	-483.0404357910157	1145.118896484375	-726.6644287109376	-469.5350952148439	1136.6455078125	-671.2287597656251	-278.0322570800782	859.129089355469	-958.2739257812502	-229.0813293457032	789.4454345703127	-956.2534179687502	-186.6489868164063	798.3205566406252	-927.986755371094	-243.3290252685547	731.6929321289064	-951.8884887695315	-213.8321685791016	634.9271240234376	-948.1687011718752	-192.3488769531251	620.9085693359376	-821.699645996094	-120.091537475586	520.4278564453126	-921.2758789062502	-158.8192596435547	474.3018188476564	-981.2132568359377	-118.49658203125	476.2207641601564	-958.6757812500002	-92.5238723754883	397.4386596679689	-940.9927978515627	-91.60718536376955	192.4963684082032	-970.4995727539065	-66.60329437255861	206.8905487060547	-881.1921997070315	-140.2174530029297	141.3109741210938	-916.5277099609377	79.44338226318361	181.6972351074219	-913.0176391601565	81.25928497314455	188.4189453125	-959.533386230469	35.42631149291993	157.2669982910157	-1010.396057128906	-369.3248901367188	869.258239746094	-570.3741455078126	-333.6661682128907	812.7130126953127	-573.0305175781251	-300.4358215332032	813.315612792969	-575.6520385742189	-362.0080261230469	736.7333984375001	-594.2210083007814	-356.8726501464844	556.6704101562501	-624.3318481445314	-324.6703796386719	552.4411621093751	-757.6424560546876	-307.7014465332032	357.7629089355469	-721.7480468750001	-346.9265441894532	275.2996826171876	-661.9793090820314	-310.6486511230469	270.4221496582032	-693.8641357421876	-321.9125976562501	228.7350311279297	-731.8282470703126	-381.1651611328126	117.9003524780274	-697.0831909179689	-350.0814208984376	143.8801727294922	-783.437438964844	-445.2805480957032	103.8475341796875	-762.5470581054689	-238.1458740234376	59.33921051025392	-769.8627929687502	-230.9911041259766	62.26503753662111	-716.9294433593751	-282.0424499511719	30.76826477050782	-666.8543701171876	
1084	5.415	-300.5482482910157	1813.443359375	-585.0887451171876	-455.6131896972657	1759.801513671875	-659.0861816406251	-290.2102050781251	1826.604736328125	-727.0305175781251	-464.2256164550782	1602.2587890625	-682.3887329101564	-460.7274780273439	1293.174438476563	-691.5325927734376	-302.3124389648438	1558.558471679688	-674.1611328125001	-315.2379150390626	1609.685546875	-848.637878417969	-406.1126098632814	1410.120727539063	-975.7873535156252	-363.2967834472657	1389.573364257813	-983.8046875000002	-399.1568908691407	1342.813354492188	-990.4235839843752	-399.1633605957032	1276.217407226563	-1003.354309082031	-421.0897827148439	1251.121215820313	-941.532653808594	-333.9812011718751	1005.896179199219	-1008.455261230469	-360.6447143554688	1020.013000488281	-1083.661499023438	-305.8785705566407	913.403747558594	-1043.835083007813	-329.2965698242188	1581.994384765625	-487.9096679687501	-408.9597778320314	1350.459228515625	-410.0946350097657	-365.1979980468751	1331.059814453125	-423.6405029296876	-399.180877685547	1282.091674804688	-419.7183227539064	-414.7827758789064	1223.150634765625	-432.171356201172	-444.0491943359376	1215.03125	-509.1912841796876	-403.8811950683595	947.1348266601565	-475.9233703613282	-424.867156982422	960.9529418945315	-399.2068481445314	-400.6887207031251	856.0056152343752	-447.8062744140626	-295.8020324707032	1122.131469726563	-860.5262451171877	-264.2964172363282	1082.249145507813	-625.5403442382814	-471.1380310058595	1172.483642578125	-695.9349365234376	-482.6575927734376	1145.130615234375	-726.6525268554689	-469.1125793457032	1136.706176757813	-671.1847534179689	-277.5209350585938	858.988952636719	-958.017028808594	-228.7042694091797	789.3491210937502	-956.0411376953127	-186.3595428466797	798.164978027344	-927.7336425781252	-242.9512939453126	731.6231689453126	-951.630310058594	-213.5404052734376	634.7847290039064	-947.749450683594	-192.1776275634766	620.8248291015626	-821.4565429687502	-119.8574981689453	520.1408081054689	-920.9390258789065	-158.606201171875	474.021697998047	-980.7867431640627	-118.1136093139649	475.8125915527345	-958.2930297851565	-92.50148010253908	397.1417236328126	-940.5540161132815	-91.6783905029297	192.3623199462891	-970.0875244140627	-66.56700134277345	206.7578277587891	-880.7449951171877	-140.1971435546875	141.265121459961	-916.000671386719	80.10218048095705	182.0606689453125	-912.7195434570315	81.42359924316408	188.1169586181641	-958.9751586914065	35.48590850830079	156.90966796875	-1009.851257324219	-369.0954895019532	869.1978759765627	-570.3456420898439	-333.5494995117188	812.6976318359377	-573.0334472656251	-300.0813598632813	812.7672119140627	-575.4597167968751	-361.4696350097657	736.6411132812501	-594.3102416992189	-356.6967163085938	556.6278686523439	-624.3808593750001	-324.6054992675782	552.5151977539064	-757.8368530273439	-307.6737365722657	357.7121276855469	-722.0233154296876	-346.4862670898438	275.2414855957032	-662.2308959960939	-310.5224304199219	270.4953308105469	-694.1842041015626	-321.7602233886719	228.7574615478516	-732.1859741210939	-381.0907287597657	117.9784851074219	-697.3579101562501	-350.3881530761719	143.8218688964844	-783.8721923828127	-445.2847290039064	103.8500442504883	-762.7017822265626	-238.2050781250001	59.2579917907715	-770.023376464844	-230.9632415771485	62.3015823364258	-717.0772705078126	-282.0316772460938	30.93292617797852	-666.8833618164064	
1085	5.42	-299.4124755859376	1813.520385742188	-585.7539672851564	-454.8768005371095	1759.742431640625	-659.5327758789064	-289.1732788085938	1826.555053710938	-727.4398803710939	-463.5921325683595	1602.25634765625	-682.7195434570314	-460.251922607422	1293.189208984375	-691.5610961914064	-301.6756591796876	1558.4765625	-674.4733886718751	-315.0692749023438	1609.573120117188	-849.2478027343752	-407.818084716797	1410.281127929688	-975.4106445312502	-364.9415283203126	1389.393188476563	-983.6006469726565	-401.5089416503907	1342.879150390625	-989.7776489257815	-402.0286560058595	1276.255249023438	-1002.438842773438	-423.4568176269532	1251.552978515625	-940.270446777344	-340.1171569824219	1005.134094238281	-1008.27685546875	-368.0883789062501	1020.0126953125	-1083.083251953125	-314.2543945312501	912.3594970703127	-1043.997802734375	-328.9608459472657	1582.186767578125	-487.9938049316407	-411.3746032714845	1351.197265625	-410.8472290039064	-367.6174316406251	1331.440307617188	-423.9312744140626	-402.1459045410157	1283.052124023438	-420.4990844726564	-418.4783020019532	1223.94873046875	-433.4573669433595	-447.3080139160157	1216.2421875	-510.5658569335939	-409.809295654297	948.1013183593752	-477.8982543945314	-431.8186645507814	961.8555297851565	-401.2477416992189	-408.4251403808595	856.7446289062502	-450.3621215820314	-295.4358825683594	1122.013916015625	-860.4654541015627	-264.0428771972657	1082.13818359375	-625.3600463867189	-470.7044677734376	1172.454345703125	-695.8939819335939	-482.1986694335939	1145.182495117188	-726.7234497070314	-468.6219787597657	1136.732299804688	-671.1531982421876	-277.1860351562501	858.8697509765627	-957.8477172851565	-228.2257537841797	789.1870727539065	-955.601013183594	-185.9581909179688	797.9028320312502	-927.4876098632815	-242.5434112548829	731.5436401367189	-951.283142089844	-213.2429199218751	634.7257690429689	-947.483825683594	-191.9876403808594	620.7352294921876	-821.2041015625002	-119.4486083984375	520.0180664062501	-920.580017089844	-158.2189331054688	473.9155883789064	-980.4511718750002	-118.244987487793	475.6267700195314	-957.7364501953127	-92.22633361816408	396.9596557617189	-940.141296386719	-91.61721801757814	192.2303619384766	-969.4402465820315	-66.49867248535158	206.6382598876954	-880.3086547851565	-140.2592468261719	141.2198486328125	-915.426940917969	80.20980834960939	181.8816070556641	-912.0963134765627	81.45671844482423	187.8906860351563	-958.4001464843752	35.47848510742188	156.5276947021485	-1009.226135253906	-369.7330627441407	869.132019042969	-570.8224487304689	-333.0296020507813	812.423034667969	-573.0364379882814	-299.7726135253907	812.4094238281252	-575.4581909179689	-361.1893005371094	736.4394531250001	-594.3583984375001	-356.2836608886719	556.4561767578126	-624.4904174804689	-324.4009094238282	552.5933837890626	-758.0137939453126	-307.7092895507813	357.5808410644532	-722.3140869140626	-346.2735290527344	275.2194519042969	-662.4923706054689	-310.3942565917969	270.4754028320313	-694.5485839843751	-321.7186889648438	228.5824279785157	-732.5647583007814	-381.0187072753907	118.1240310668946	-697.6014404296876	-350.3024597167969	143.793685913086	-784.1730957031252	-445.3369445800782	103.8871154785157	-762.7406005859376	-238.0132141113282	59.32984542846681	-770.1650390625002	-231.0077667236329	62.30550765991212	-717.2027587890626	-281.9978637695313	31.04671669006348	-666.9407348632814	
